<?xml version="1.0" standalone="no"?>
<!DOCTYPE svg PUBLIC "-//W3C//DTD SVG 20010904//EN"
 "http://www.w3.org/TR/2001/REC-SVG-20010904/DTD/svg10.dtd">
<svg version="1.0" xmlns="http://www.w3.org/2000/svg"
 width="214.000000pt" height="214.000000pt" viewBox="0 0 214.000000 214.000000"
 preserveAspectRatio="xMidYMid meet">
<metadata>
Created by potrace 1.16, written by Peter Selinger 2001-2019
</metadata>
<g transform="translate(0.000000,214.000000) scale(0.100000,-0.100000)"
fill="#000000" stroke="none">
<path d="M0 1070 l0 -1070 1070 0 1070 0 0 1070 0 1070 -1070 0 -1070 0 0
-1070z m1495 634 c146 -30 245 -89 245 -144 0 -56 -98 -113 -250 -146 -67 -15
-125 -19 -270 -18 -166 1 -195 4 -284 27 -114 31 -180 66 -202 108 -14 28 -14
33 3 62 33 56 155 103 333 128 85 12 335 2 425 -17z m245 -359 c0 -56 -4 -70
-24 -90 -33 -33 -91 -60 -171 -82 -56 -15 -69 -16 -73 -5 -8 26 -67 86 -111
114 l-45 28 35 0 c87 0 285 48 349 85 14 8 28 14 33 15 4 0 7 -29 7 -65z
m-740 -45 c347 -34 510 -198 320 -320 -117 -75 -342 -113 -542 -91 -233 25
-388 105 -388 201 0 103 153 186 390 210 107 10 115 10 220 0z m707 -306 c-35
-32 -114 -67 -181 -79 l-37 -7 3 83 3 83 65 16 c36 9 90 28 120 42 l55 24 3
-65 c3 -64 2 -67 -31 -97z m-1271 -94 c47 -30 122 -57 224 -82 36 -8 118 -13
240 -12 158 0 197 3 267 22 93 25 163 53 204 83 l29 20 0 -81 c0 -78 -1 -83
-30 -110 -69 -64 -219 -100 -440 -107 -190 -5 -334 15 -439 62 -87 39 -95 52
-101 151 -3 46 -4 84 -3 84 1 0 23 -13 49 -30z m2 -274 c26 -13 72 -31 102
-39 70 -20 272 -47 355 -47 154 0 415 52 470 94 32 24 35 20 35 -48 0 -77 -18
-104 -93 -140 -236 -111 -774 -84 -894 46 -16 18 -22 38 -25 91 -1 37 -2 67 0
67 1 0 24 -11 50 -24z"/>
</g>
</svg>
